<?xml version="1.0" encoding="utf-8"?>
<!-- Generator: Adobe Illustrator 18.1.1, SVG Export Plug-In . SVG Version: 6.00 Build 0)  -->
<!DOCTYPE svg PUBLIC "-//W3C//DTD SVG 1.1//EN" "http://www.w3.org/Graphics/SVG/1.1/DTD/svg11.dtd">
<svg version="1.1" id="Layer_1" xmlns="http://www.w3.org/2000/svg" xmlns:xlink="http://www.w3.org/1999/xlink" x="0px" y="0px"
	 viewBox="0 0 185 40" enable-background="new 0 0 185 40" xml:space="preserve">
<g>
	<path fill="#36128C" d="M9,36.3c-3.3,0-6.3-1-7.9-2.1l-1-5.1c2.9,2.1,5.9,3.1,9.2,3.1c3.4,0,5.7-1.9,5.7-4.7c0-2.6-1.6-4.4-5.3-5.6
		c-5.5-1.8-8.3-4.8-8.3-9c0-4.3,3.2-8.3,9.7-8.3c3,0,5.6,1,6.7,1.8l-0.9,3.8c-1.1-0.8-3.4-1.8-5.9-1.8c-3.1,0-5,1.9-5,4.2
		c0,2,1.7,3.6,4.9,4.7c5.3,1.8,8.9,4.6,8.9,9.8C19.5,32.5,15.9,36.3,9,36.3L9,36.3z"/>
	<path fill="#36128C" d="M53.4,35.7l-1.2-13.8c-0.2-2.1-0.4-4.7-0.5-6.9h-0.1c-1,2.2-2.4,5.1-3.4,7.1L41,35.9h-1.7L32.1,22
		c-1.1-2-2.4-4.7-3.4-7h-0.1c-0.1,2.3-0.3,5-0.5,6.8l-1.2,13.8h-4.1l2.6-30.6h2.9l8.1,15.7c1.2,2.4,2.8,5.5,3.8,7.9h0.1
		c1-2.3,2.4-5.3,3.7-7.9l8-15.7H55l2.7,30.6H53.4L53.4,35.7z"/>
	<path fill="#36128C" d="M76.2,12.3c0,1.8-1.7,3.8-4.5,5.3c-2.2-2.1-3.5-3.6-3.5-5.3c0-1.9,1.7-4,3.8-4
		C74.2,8.2,76.2,10.3,76.2,12.3L76.2,12.3z M89.8,35.7L84,29.9c1.7-2.2,2.7-4.6,3.3-6.4l-2.9-3c-0.7,2.1-1.8,4.4-3.3,6.5l-6.7-6.7
		c3.1-1.6,5.9-4.6,5.9-8.1c0-4.7-4.3-7.7-8.4-7.7c-3.9,0-8,3-8,7.7c0,2.5,1.6,5.2,3.8,7.3C64.2,21.4,62,23.9,62,28
		c0,4.5,4,8.2,9.7,8.2c4,0,7-1.4,9.4-3.3l2.7,2.7H89.8L89.8,35.7z M78.3,30.1c-1.8,1.4-3.9,2.4-6.3,2.4c-3.1,0-5.6-2.1-5.6-4.7
		c0-2.5,1.3-4,4.1-5.4L78.3,30.1L78.3,30.1z"/>
	<path fill="#36128C" d="M117.4,36.1h-1.6l-5.7-16.3c-0.8-2.3-1.7-4.9-2.6-8.2h-0.1c-1,3.3-1.8,5.9-2.6,8.2L99,36.1h-1.6l-10.8-31
		h4.6l4.9,14.1c0.7,2,1.6,4.5,2.3,7h0.1c0.7-2.5,1.5-4.9,2.2-7l4.9-14.1h4l4.9,14.1c0.7,2,1.5,4.5,2.1,7h0.1c0.6-2.4,1.6-5.1,2.3-7
		L124,5.1h4.3L117.4,36.1L117.4,36.1z"/>
	<path fill="#C7A941" d="M149.8,13.1c0-5.1-4.1-8.3-9.7-8.4c-0.1,0-0.3,0-0.5,0c-4.8,0.2-7.8,2.3-8.5,2.7c-0.1,0-0.1,0.1-0.1,0.1
		c-0.4,0.2-0.6,0.8-0.3,1.2l1.2,1.9c0.3,0.4,0.8,0.6,1.2,0.3c0.4-0.3,0.8-0.5,1.7-0.9c2.3-1.1,4.2-1.2,4.2-1.2s0,0,0,0
		c0.2,0,0.4,0,0.6,0c3.2,0,5.5,2,5.5,5c0,2.7-2.4,4.8-6.7,4.8h-2.5c-0.7,0-0.9,0.3-0.9,1v2c0,0.7,0.4,1,0.9,1h2.5
		c4.9,0,7.5,1.8,7.5,5.1c0,2.3-1.3,4.1-3.5,4.8c-0.1,0-0.2,0-0.3,0c-0.2,0-0.4,0.1-0.6,0.1c-0.1,0-0.2,0-0.3,0c-0.3,0-0.6,0-1,0
		c0,0,0,0,0,0c0,0,0,0,0,0c-1.3,0-2.5-0.2-3.6-0.6c-0.2-0.1-0.4-0.1-0.6-0.2c-0.1-0.1-0.3-0.1-0.4-0.2c-0.2-0.1-0.4-0.2-0.7-0.3
		c-0.1,0-0.2-0.1-0.2-0.1c-0.3-0.2-0.6-0.3-0.9-0.5c0,0,0,0,0,0c-0.3-0.2-0.6-0.4-0.9-0.6h0c0,0-0.1-0.1-0.1-0.1
		c-0.4-0.2-0.8-0.2-1.1,0.3l-1.3,2.1c-0.2,0.3-0.1,0.8,0.2,1c0.1,0.1,0.2,0.2,0.5,0.4c1.4,1,3,1.7,4.6,2.2c0,0,0.1,0,0.1,0
		c0.2,0.1,0.4,0.1,0.6,0.2c1.1,0.3,2.3,0.4,3.6,0.4c0,0,0,0,0,0c0,0,0,0,0,0v0c6.3,0,10.4-3.6,10.4-8.9c0-4.7-3.6-6.5-5.7-7.4v-0.1
		C146.9,19.3,149.8,16.6,149.8,13.1L149.8,13.1z"/>
	<path fill="#C7A941" d="M185,20.7c0-8.8-7.2-16-16-16c-8.8,0-16,7.2-16,16c0,8.8,7.2,16,16,16C177.8,36.7,185,29.5,185,20.7
		L185,20.7z M181,20.7c0,6.6-5.4,12-12,12c-6.6,0-12-5.4-12-12c0-6.6,5.4-12,12-12C175.6,8.7,181,14.1,181,20.7L181,20.7z"/>
	<path fill="#D2232A" d="M168.4,0"/>
	<path fill="#FFFFFF" d="M161.1,1.8c0,0,20,5.4,20,18.9c0,13.5-20,18.9-20,18.9s15.3-5.4,15.3-18.9C176.4,7.2,161.1,1.8,161.1,1.8
		L161.1,1.8z"/>
	<path fill="#FFFFFF" d="M160.7,2.2c0,0,20.1,5,20.3,18.5c0.2,13.5-19.6,19.2-19.6,19.2s15.2-5.7,15-19.1
		C176.2,7.3,160.7,2.2,160.7,2.2L160.7,2.2z"/>
	<path fill="#FFFFFF" d="M161.4,1.5c0,0,19.9,5.7,19.6,19.2c-0.2,13.5-20.3,18.5-20.3,18.5s15.4-5.1,15.7-18.6
		C176.6,7.2,161.4,1.5,161.4,1.5L161.4,1.5z"/>
	<path fill="#C7A941" d="M160.4,22.9c0,0.1,0,0.1,0.1,0.1h0.7c0.1,0,0.1-0.1,0.1-0.1V21l1.3-2c0-0.1,0-0.2-0.1-0.2h-0.8
		c-0.1,0-0.1,0-0.1,0.1l-0.8,1.2l-0.8-1.2c0,0,0-0.1-0.1-0.1h-0.8c-0.1,0-0.1,0.1-0.1,0.2l1.3,2V22.9L160.4,22.9z M163.5,22.9
		c0,0.1,0,0.1,0.1,0.1h2.4c0.1,0,0.1-0.1,0.1-0.1v-0.6c0-0.1,0-0.1-0.1-0.1h-1.6v-0.8h1.3c0.1,0,0.1,0,0.1-0.1v-0.6
		c0-0.1-0.1-0.1-0.1-0.1h-1.3v-0.7h1.6c0.1,0,0.1-0.1,0.1-0.1V19c0-0.1,0-0.1-0.1-0.1h-2.4c-0.1,0-0.1,0.1-0.1,0.1V22.9L163.5,22.9z
		 M167,23h0.7c0.1,0,0.2-0.1,0.2-0.1l0.2-0.5h1.6l0.2,0.5C170,23,170,23,170.1,23h0.7c0.1,0,0.1-0.1,0.1-0.2l-1.9-4
		c0,0-0.1-0.1-0.1-0.1h-0.1c0,0-0.1,0-0.1,0.1l-1.9,4C166.9,22.9,166.9,23,167,23L167,23z M168.5,21.6l0.4-1h0l0.4,1H168.5
		L168.5,21.6z M171.8,22.9c0,0.1,0,0.1,0.1,0.1h0.7c0.1,0,0.1-0.1,0.1-0.1v-1.5h0.4l0.8,1.6c0,0,0,0.1,0.1,0.1h0.8
		c0.1,0,0.1-0.1,0.1-0.2l-0.8-1.5c0.5-0.2,0.9-0.6,0.9-1.2c0-0.7-0.5-1.3-1.3-1.3h-1.8c-0.1,0-0.1,0.1-0.1,0.1V22.9L171.8,22.9z
		 M172.7,20.6v-0.9h0.9c0.2,0,0.4,0.2,0.4,0.5c0,0.3-0.2,0.5-0.4,0.5H172.7L172.7,20.6z M177.3,23.1c0.9,0,1.4-0.6,1.4-1.2
		c0-0.8-0.7-1.1-1.2-1.3c-0.4-0.2-0.6-0.4-0.6-0.6c0-0.2,0.1-0.3,0.4-0.3c0.3,0,0.7,0.2,0.8,0.3c0.1,0.1,0.2,0,0.3,0l0.3-0.5
		c0,0,0-0.1,0-0.2c-0.2-0.1-0.7-0.4-1.3-0.4c-0.9,0-1.4,0.6-1.4,1.2c0,0.7,0.6,1,1.1,1.3c0.4,0.2,0.6,0.3,0.6,0.6
		c0,0.2-0.2,0.4-0.4,0.4c-0.4,0-0.7-0.2-0.8-0.3c-0.1,0-0.2,0-0.2,0l-0.3,0.5c0,0.1,0,0.1,0,0.2C176.2,22.7,176.6,23.1,177.3,23.1
		L177.3,23.1z"/>
</g>
</svg>
