<?xml version="1.0" encoding="utf-8"?>
<!-- Generator: Adobe Illustrator 19.2.1, SVG Export Plug-In . SVG Version: 6.00 Build 0)  -->
<svg version="1.1" id="Layer_1" xmlns="http://www.w3.org/2000/svg" xmlns:xlink="http://www.w3.org/1999/xlink" x="0px" y="0px"
	 viewBox="0 0 18 24" style="enable-background:new 0 0 18 24;" xml:space="preserve">
<style type="text/css">
	.st0{fill:#26128C;}
</style>
<g>
	<path class="st0" d="M16.4,8.6c0,1.1-0.2,1.9-0.5,2.6l-5.3,11.2c-0.2,0.3-0.4,0.6-0.7,0.8s-0.6,0.3-1,0.3s-0.7-0.1-1-0.3
		s-0.5-0.4-0.7-0.8L2.1,11.2c-0.3-0.7-0.5-1.5-0.5-2.6c0-2.1,0.7-3.8,2.2-5.3C5.2,1.9,7,1.2,9,1.2c2.1,0,3.8,0.7,5.3,2.2
		C15.7,4.8,16.4,6.5,16.4,8.6z M11.6,11.2c0.7-0.7,1.1-1.6,1.1-2.6S12.4,6.7,11.6,6C10.9,5.2,10,4.9,9,4.9C8,4.9,7.1,5.2,6.4,6
		C5.7,6.7,5.3,7.6,5.3,8.6s0.4,1.9,1.1,2.6C7.1,11.9,8,12.3,9,12.3C10,12.3,10.9,11.9,11.6,11.2z"/>
</g>
</svg>
