<?xml version="1.0" encoding="utf-8"?>
<!-- Generator: Adobe Illustrator 18.1.1, SVG Export Plug-In . SVG Version: 6.00 Build 0)  -->
<svg version="1.1" id="Layer_1" xmlns="http://www.w3.org/2000/svg" xmlns:xlink="http://www.w3.org/1999/xlink" x="0px" y="0px"
	 viewBox="0 0 146 37" enable-background="new 0 0 146 37" xml:space="preserve">
<g>
	<path fill="#36128C" d="M10.5,36.5c-3.8,0-7.2-1.1-9-2.3l-1.2-5.8c3.3,2.3,6.7,3.5,10.4,3.5c3.9,0,6.4-2.2,6.4-5.4c0-3-1.8-5-6-6.4
		c-6.2-2-9.4-5.5-9.4-10.3c0-4.8,3.6-9.5,11-9.5c3.4,0,6.3,1.1,7.6,2l-1,4.3c-1.2-0.9-3.9-2-6.7-2C8.9,4.8,6.7,7,6.7,9.6
		c0,2.3,2,4.1,5.6,5.4c6,2.1,10.1,5.3,10.1,11.1C22.4,32.3,18.3,36.5,10.5,36.5"/>
	<path fill="#36128C" d="M60.8,35.8l-1.4-15.6c-0.2-2.3-0.4-5.3-0.5-7.9h-0.1c-1.1,2.4-2.8,5.8-3.9,8l-8,15.7h-1.9l-8.1-15.7
		c-1.2-2.3-2.7-5.4-3.9-7.9h-0.1c-0.1,2.7-0.4,5.7-0.5,7.8l-1.4,15.6h-4.7l3-34.6h3.3L41.6,19c1.4,2.7,3.2,6.2,4.3,8.9h0.1
		c1.1-2.7,2.8-6,4.2-8.9l9.1-17.8h3.3l3.1,34.6H60.8z"/>
	<path fill="#36128C" d="M89,29.5c-2.1,1.6-4.5,2.7-7.1,2.7c-3.5,0-6.3-2.4-6.3-5.3c0-2.9,1.5-4.6,4.7-6.1L89,29.5z M102.1,35.8
		l-6.6-6.6c1.9-2.5,3.1-5.3,3.7-7.2l-3.3-3.4c-0.8,2.3-2,5-3.7,7.3l-7.6-7.5c3.5-1.8,6.7-5.2,6.7-9.2c0-5.3-4.9-8.8-9.5-8.8
		c-4.4,0-9.1,3.4-9.1,8.8c0,2.9,1.8,5.9,4.3,8.3c-4,2.1-6.5,5-6.5,9.6c0,5,4.6,9.3,11,9.3c4.5,0,8-1.6,10.6-3.8l3.1,3.1H102.1z
		 M86.7,9.3c0,2-1.9,4.3-5.2,6c-2.4-2.4-4-4.1-4-6c0-2.2,1.9-4.6,4.4-4.6C84.5,4.7,86.7,7.1,86.7,9.3"/>
	<path fill="#36128C" d="M133.4,36.3h-1.8l-6.5-18.5c-0.9-2.7-1.9-5.5-3-9.3H122c-1.1,3.7-2.1,6.7-3,9.3l-6.5,18.5h-1.8L98.5,1.2
		h5.3l5.6,16c0.8,2.3,1.8,5.1,2.6,7.9h0.1c0.8-2.8,1.7-5.6,2.5-7.9l5.5-16h4.5l5.6,16c0.8,2.2,1.7,5.1,2.4,7.9h0.1
		c0.7-2.8,1.8-5.8,2.6-7.9l5.6-16h4.8L133.4,36.3z"/>
</g>
</svg>
